<?xml version="1.0" encoding="UTF-8" standalone="no"?>
<!DOCTYPE svg PUBLIC "-//W3C//DTD SVG 1.1//EN"
 "http://www.w3.org/Graphics/SVG/1.1/DTD/svg11.dtd">
<!-- Generated by graphviz version 2.42.3 (20191010.1750)
 -->
<!-- Title: finite_state_machine Pages: 1 -->
<svg width="504pt" height="225pt"
 viewBox="0.00 0.00 504.29 225.15" xmlns="http://www.w3.org/2000/svg" xmlns:xlink="http://www.w3.org/1999/xlink">
<g id="graph0" class="graph" transform="scale(1 1) rotate(0) translate(4 221.15)">
<title>finite_state_machine</title>
<polygon fill="white" stroke="transparent" points="-4,4 -4,-221.15 500.29,-221.15 500.29,4 -4,4"/>
<!-- 012345 -->
<g id="node1" class="node">
<title>012345</title>
<ellipse fill="none" stroke="black" cx="50.15" cy="-50.15" rx="46.28" ry="46.28"/>
<ellipse fill="none" stroke="black" cx="50.15" cy="-50.15" rx="50.29" ry="50.29"/>
<text text-anchor="middle" x="50.15" y="-46.45" font-family="Times,serif" font-size="14.00">012345</text>
</g>
<!-- 0 -->
<g id="node2" class="node">
<title>0</title>
<ellipse fill="none" stroke="black" cx="50.15" cy="-140.15" rx="18" ry="18"/>
<ellipse fill="none" stroke="black" cx="50.15" cy="-140.15" rx="22" ry="22"/>
<text text-anchor="middle" x="50.15" y="-136.45" font-family="Times,serif" font-size="14.00">0</text>
</g>
<!-- 2 -->
<g id="node3" class="node">
<title>2</title>
<ellipse fill="none" stroke="black" cx="276.29" cy="-195.15" rx="18" ry="18"/>
<ellipse fill="none" stroke="black" cx="276.29" cy="-195.15" rx="22" ry="22"/>
<text text-anchor="middle" x="276.29" y="-191.45" font-family="Times,serif" font-size="14.00">2</text>
</g>
<!-- 0&#45;&gt;2 -->
<g id="edge1" class="edge">
<title>0&#45;&gt;2</title>
<path fill="none" stroke="black" d="M71.05,-147.34C101.92,-158.2 163.43,-178.63 217.29,-189.15 225.91,-190.83 235.35,-192.06 244.06,-192.95"/>
<polygon fill="black" stroke="black" points="243.94,-196.46 254.22,-193.88 244.58,-189.49 243.94,-196.46"/>
<text text-anchor="middle" x="177.29" y="-187.95" font-family="Times,serif" font-size="14.00">8</text>
</g>
<!-- 3 -->
<g id="node4" class="node">
<title>3</title>
<ellipse fill="none" stroke="black" cx="177.29" cy="-140.15" rx="18" ry="18"/>
<ellipse fill="none" stroke="black" cx="177.29" cy="-140.15" rx="22" ry="22"/>
<text text-anchor="middle" x="177.29" y="-136.45" font-family="Times,serif" font-size="14.00">3</text>
</g>
<!-- 0&#45;&gt;3 -->
<g id="edge2" class="edge">
<title>0&#45;&gt;3</title>
<path fill="none" stroke="black" d="M72.38,-140.15C92.24,-140.15 122.17,-140.15 144.82,-140.15"/>
<polygon fill="black" stroke="black" points="144.96,-143.65 154.96,-140.15 144.96,-136.65 144.96,-143.65"/>
<text text-anchor="middle" x="127.79" y="-143.95" font-family="Times,serif" font-size="14.00">10</text>
</g>
<!-- 1 -->
<g id="node5" class="node">
<title>1</title>
<ellipse fill="none" stroke="black" cx="276.29" cy="-79.15" rx="18" ry="18"/>
<ellipse fill="none" stroke="black" cx="276.29" cy="-79.15" rx="22" ry="22"/>
<text text-anchor="middle" x="276.29" y="-75.45" font-family="Times,serif" font-size="14.00">1</text>
</g>
<!-- 0&#45;&gt;1 -->
<g id="edge3" class="edge">
<title>0&#45;&gt;1</title>
<path fill="none" stroke="black" d="M69.73,-129.94C90.1,-119.24 124.05,-102.8 155.29,-94.15 184.73,-86 219.46,-82.26 243.96,-80.56"/>
<polygon fill="black" stroke="black" points="244.35,-84.04 254.12,-79.93 243.92,-77.06 244.35,-84.04"/>
<text text-anchor="middle" x="177.29" y="-97.95" font-family="Times,serif" font-size="14.00">7</text>
</g>
<!-- 4 -->
<g id="node6" class="node">
<title>4</title>
<ellipse fill="none" stroke="black" cx="375.29" cy="-136.15" rx="18" ry="18"/>
<ellipse fill="none" stroke="black" cx="375.29" cy="-136.15" rx="22" ry="22"/>
<text text-anchor="middle" x="375.29" y="-132.45" font-family="Times,serif" font-size="14.00">4</text>
</g>
<!-- 2&#45;&gt;4 -->
<g id="edge4" class="edge">
<title>2&#45;&gt;4</title>
<path fill="none" stroke="black" d="M295.54,-184.05C310.17,-175.15 330.92,-162.53 347.45,-152.47"/>
<polygon fill="black" stroke="black" points="349.4,-155.38 356.13,-147.19 345.77,-149.4 349.4,-155.38"/>
<text text-anchor="middle" x="325.79" y="-173.95" font-family="Times,serif" font-size="14.00">12</text>
</g>
<!-- 3&#45;&gt;2 -->
<g id="edge6" class="edge">
<title>3&#45;&gt;2</title>
<path fill="none" stroke="black" d="M196.99,-150.75C211.35,-158.89 231.4,-170.26 247.61,-179.45"/>
<polygon fill="black" stroke="black" points="246.22,-182.69 256.65,-184.57 249.67,-176.6 246.22,-182.69"/>
<text text-anchor="middle" x="226.79" y="-175.95" font-family="Times,serif" font-size="14.00">2</text>
</g>
<!-- 3&#45;&gt;1 -->
<g id="edge7" class="edge">
<title>3&#45;&gt;1</title>
<path fill="none" stroke="black" d="M195.02,-126.93C201.79,-121.79 209.77,-115.99 217.29,-111.15 226.89,-104.97 237.77,-98.77 247.49,-93.5"/>
<polygon fill="black" stroke="black" points="249.2,-96.55 256.37,-88.75 245.9,-90.37 249.2,-96.55"/>
<text text-anchor="middle" x="226.79" y="-114.95" font-family="Times,serif" font-size="14.00">11</text>
</g>
<!-- 3&#45;&gt;4 -->
<g id="edge5" class="edge">
<title>3&#45;&gt;4</title>
<path fill="none" stroke="black" d="M199.64,-139.71C234.34,-139 303.13,-137.6 343.24,-136.78"/>
<polygon fill="black" stroke="black" points="343.34,-140.28 353.27,-136.57 343.2,-133.28 343.34,-140.28"/>
<text text-anchor="middle" x="276.29" y="-141.95" font-family="Times,serif" font-size="14.00">5</text>
</g>
<!-- 1&#45;&gt;4 -->
<g id="edge8" class="edge">
<title>1&#45;&gt;4</title>
<path fill="none" stroke="black" d="M296.01,-89.07C307.46,-95.24 322.35,-103.44 335.29,-111.15 339.48,-113.64 343.86,-116.35 348.12,-119.04"/>
<polygon fill="black" stroke="black" points="346.27,-122.01 356.58,-124.45 350.04,-116.11 346.27,-122.01"/>
<text text-anchor="middle" x="325.79" y="-114.95" font-family="Times,serif" font-size="14.00">1</text>
</g>
<!-- 5 -->
<g id="node7" class="node">
<title>5</title>
<ellipse fill="none" stroke="black" cx="474.29" cy="-93.15" rx="18" ry="18"/>
<ellipse fill="none" stroke="black" cx="474.29" cy="-93.15" rx="22" ry="22"/>
<text text-anchor="middle" x="474.29" y="-89.45" font-family="Times,serif" font-size="14.00">5</text>
</g>
<!-- 1&#45;&gt;5 -->
<g id="edge9" class="edge">
<title>1&#45;&gt;5</title>
<path fill="none" stroke="black" d="M298.27,-80.64C332.81,-83.11 401.83,-88.04 442.11,-90.92"/>
<polygon fill="black" stroke="black" points="441.95,-94.42 452.17,-91.64 442.45,-87.43 441.95,-94.42"/>
<text text-anchor="middle" x="375.29" y="-90.95" font-family="Times,serif" font-size="14.00">21</text>
</g>
<!-- 4&#45;&gt;5 -->
<g id="edge10" class="edge">
<title>4&#45;&gt;5</title>
<path fill="none" stroke="black" d="M395.92,-127.44C409.86,-121.27 428.79,-112.87 444.45,-105.93"/>
<polygon fill="black" stroke="black" points="445.97,-109.09 453.69,-101.83 443.13,-102.69 445.97,-109.09"/>
<text text-anchor="middle" x="424.79" y="-121.95" font-family="Times,serif" font-size="14.00">14</text>
</g>
</g>
</svg>
